<?xml version="1.0" standalone="no"?>

<!DOCTYPE svg PUBLIC "-//W3C//DTD SVG 20010904//EN"

 "http://www.w3.org/TR/2001/REC-SVG-20010904/DTD/svg10.dtd">

<svg version="1.0" xmlns="http://www.w3.org/2000/svg"

 width="235.000000pt" height="254.000000pt" viewBox="0 0 235.000000 254.000000"

 preserveAspectRatio="xMidYMid meet">

<path fill="#24317a" stroke="none" d="
M0 127

L0 0

L118 0

L235 0

L235 127

L235 254

L118 254

L0 254

L0 127

Z

"/>

<path fill="#106db5" stroke="none" d="
M0 127

L0 0

L118 0

L235 0

L235 127

L235 254

L118 254

L0 254

L0 127

Z

M81 233

C78 227 78 226 77 212

C76 204 76 191 76 184

C76 176 76 156 75 139

C75 108 75 108 61 102

C39 92 13 83 11 83

L10 84

L10 86

C11 86 11 104 12 124

C12 162 13 187 15 198

C16 205 20 211 25 215

C31 219 78 238 82 238

L84 238

L81 233

Z

M145 117

L145 115

L144 115

L142 115

L142 117

L142 118

L144 118

L145 118

L145 117

Z

"/>

<path fill="#478fa8" stroke="none" d="
M0 127

L0 0

L118 0

L235 0

L235 127

L235 254

L118 254

L0 254

L0 127

Z

M81 233

C78 227 78 226 77 212

C76 204 76 191 76 184

C76 176 76 156 75 139

C75 108 75 108 61 102

C39 92 13 83 11 83

L10 84

L10 86

C11 86 11 104 12 124

C12 162 13 187 15 198

C16 205 20 211 25 215

C31 219 78 238 82 238

L84 238

L81 233

Z

M113 227

C128 220 138 207 141 194

C142 191 142 175 143 159

C143 132 143 130 141 129

C138 128 93 110 90 109

L87 109

L87 151

C87 198 88 218 90 223

C92 227 98 231 103 231

C105 231 109 229 113 227

Z

M145 117

L145 115

L144 115

L142 115

L142 117

L142 118

L144 118

L145 118

L145 117

Z

"/>

<path fill="#31a7df" stroke="none" d="
M0 127

L0 0

L118 0

L235 0

L235 127

L235 254

L118 254

L0 254

L0 127

Z

M81 233

C78 227 78 226 77 212

C76 204 76 191 76 184

C76 176 76 156 75 139

C75 108 75 108 61 102

C39 92 13 83 11 83

L10 84

L10 86

C11 86 11 104 12 124

C12 162 13 187 15 198

C16 205 20 211 25 215

C31 219 78 238 82 238

L84 238

L81 233

Z

M113 227

C128 220 138 207 141 194

C142 191 142 175 143 159

C143 132 143 130 141 129

C140 129 129 124 116 119

C102 114 91 110 90 109

C89 108 88 108 88 108

L87 108

L87 151

C87 198 88 218 90 223

C92 227 98 231 103 231

C105 231 109 229 113 227

Z

M205 148

C205 146 205 143 204 142

L203 141

L203 147

L203 153

L204 153

L205 153

L205 148

Z

M148 119

L148 117

L147 117

L145 117

L144 113

C144 112 143 110 143 109

L142 109

L142 113

L142 118

L144 119

C145 119 147 120 147 120

L148 120

L148 119

Z

M207 66

C207 57 207 50 207 48

C208 45 207 44 198 41

L191 38

L192 40

L194 41

L192 41

L191 41

L192 41

C192 42 194 42 195 42

L198 43

L197 44

L197 45

L198 45

C200 44 204 47 205 49

C205 50 205 58 205 66

L205 81

L206 81

L207 81

L207 66

Z

M146 25

L146 26

L147 26

L148 26

L148 25

L147 24

L148 24

L150 23

L147 22

C143 21 142 21 142 25

L142 28

L144 26

L146 24

L146 25

Z

"/>

<path fill="#d7d9e2" stroke="none" d="
M0 127

L0 0

L118 0

L235 0

L235 127

L235 254

L118 254

L0 254

L0 127

Z

M81 233

C78 227 78 226 77 212

C76 204 76 191 76 184

C76 176 76 156 75 139

C75 108 75 108 61 102

C39 92 13 83 11 83

L10 84

L10 86

C11 86 11 104 12 124

C12 162 13 187 15 198

C16 205 20 211 25 215

C31 219 78 238 82 238

L84 238

L81 233

Z

M113 227

C128 220 138 207 141 194

C142 191 142 175 143 159

C143 132 143 130 141 129

C140 129 129 124 116 119

C102 114 91 110 90 109

C89 108 88 108 88 108

L87 108

L87 151

C87 198 88 218 90 223

C92 227 98 231 103 231

C105 231 109 229 113 227

Z

M179 184

C188 179 197 170 201 162

C205 153 206 148 206 95

C207 71 207 50 207 49

C208 47 207 46 207 45

C206 44 198 41 165 29

C153 24 143 21 143 22

C142 22 142 44 142 70

L143 118

L146 119

C152 121 152 121 152 143

C154 174 155 181 160 185

C164 188 172 188 179 184

Z

"/>

<path fill="#eeeef2" stroke="none" d="
M0 127

L0 0

L118 0

L235 0

L235 127

L235 254

L118 254

L0 254

L0 127

Z

M81 233

C78 227 78 226 77 212

C76 204 76 191 76 184

C76 176 76 156 75 139

C75 108 75 108 61 102

C39 92 13 83 11 83

L10 84

L10 86

C11 86 11 104 12 124

C12 162 13 187 15 198

C16 205 20 211 25 215

C31 219 78 238 82 238

L84 238

L81 233

Z

M113 227

C128 220 138 207 141 194

C142 191 142 175 143 159

C143 132 143 130 141 129

C140 129 129 124 116 119

C102 114 91 110 90 109

C89 108 88 108 88 108

L87 108

L87 151

C87 198 88 218 90 223

C92 227 98 231 103 231

C105 231 109 229 113 227

Z

M179 184

C188 179 197 170 201 162

C205 153 206 148 206 95

C207 71 207 50 207 49

C208 47 207 46 207 45

C206 44 198 41 165 29

C153 24 143 21 143 22

C142 22 142 44 142 70

L143 118

L146 119

C152 121 152 121 152 143

C154 174 155 181 160 185

C164 188 172 188 179 184

Z

"/>

<path fill="#efeff3" stroke="none" d="
M0 127

L0 0

L118 0

L235 0

L235 127

L235 254

L118 254

L0 254

L0 127

Z

M81 233

C78 227 78 226 77 212

C77 204 76 191 76 183

C76 175 76 155 75 138

C75 108 75 108 61 102

C39 92 13 83 11 83

L10 84

L10 86

C11 86 11 104 12 124

C12 162 13 187 15 198

C16 205 20 211 25 215

C31 219 78 238 82 238

L84 238

L81 233

Z

M113 227

C128 220 138 207 141 194

C142 191 142 175 143 159

C143 132 143 130 141 129

C140 129 129 124 116 119

C102 114 91 110 90 109

C89 108 88 108 88 108

L87 108

L87 151

C87 198 88 218 90 223

C92 227 98 231 103 231

C105 231 109 229 113 227

Z

M179 184

C188 179 197 170 201 162

C205 153 206 148 206 95

C207 71 207 50 207 49

C208 47 207 46 207 45

C206 44 198 41 165 29

C153 24 143 21 143 22

C142 22 142 44 142 70

L143 118

L146 119

C152 121 152 121 152 143

C154 174 155 181 160 185

C164 188 172 188 179 184

Z

"/>

<path fill="#f3f3f6" stroke="none" d="
M0 127

L0 0

L118 0

L235 0

L235 127

L235 254

L118 254

L0 254

L0 127

Z

M81 233

C78 227 78 226 77 212

C77 204 76 178 76 154

C76 130 76 110 75 109

C73 106 14 82 11 83

L10 84

L10 85

C11 86 11 104 11 124

C12 162 13 187 15 198

C16 205 20 211 25 215

C31 219 78 238 82 238

L84 238

L81 233

Z

M113 227

C128 220 138 207 141 194

C142 191 142 175 143 159

C143 132 143 130 141 129

C140 129 129 124 116 119

C102 114 91 110 90 109

C89 108 88 108 88 108

L87 108

L87 151

C87 198 88 218 90 223

C92 227 98 231 103 231

C105 231 109 229 113 227

Z

M179 184

C188 179 197 170 201 162

C205 153 206 148 206 95

C207 71 207 50 207 49

C208 47 207 46 207 45

C206 44 198 41 165 29

C153 24 143 21 143 22

C142 22 142 44 142 70

L143 118

L146 119

C152 121 152 121 152 143

C154 174 155 181 160 185

C164 188 172 188 179 184

Z

"/>

<path fill="#f7f7f9" stroke="none" d="
M0 127

L0 0

L118 0

L235 0

L235 127

L235 254

L118 254

L0 254

L0 127

Z

M84 238

C83 237 82 234 80 232

C78 227 78 226 77 210

C77 201 76 175 76 152

C76 120 76 109 75 108

C72 105 14 82 12 83

L11 84

L11 92

C11 148 13 185 15 198

C16 206 21 212 26 215

C31 218 59 230 73 235

C77 237 82 239 82 239

C83 240 84 240 84 240

L84 240

L84 238

Z

M113 227

C122 223 133 213 136 206

C142 197 142 192 143 160

C143 132 143 130 141 129

C140 129 129 124 116 119

C102 114 91 110 90 109

C89 108 88 108 88 108

L87 108

L87 151

C87 198 88 218 90 223

C92 227 98 231 103 231

C105 231 109 229 113 227

Z

M179 184

C188 179 197 170 201 162

C205 153 206 148 206 96

C207 72 207 51 208 50

C208 48 208 46 207 45

C206 44 198 41 165 29

C153 24 143 21 143 22

C142 22 142 44 142 70

L143 118

L146 119

C152 121 152 121 152 143

C154 174 155 181 160 185

C164 188 172 188 179 184

Z

"/>

<path fill="#fafafb" stroke="none" d="
M0 127

L0 0

L118 0

L235 0

L235 127

L235 254

L118 254

L0 254

L0 127

Z

M84 238

C83 237 82 234 81 232

C78 228 78 226 77 210

C77 200 76 174 76 151

C76 119 76 109 75 108

C72 105 14 82 12 83

L10 84

L11 96

C11 103 11 125 12 146

C13 166 13 184 14 187

C16 202 16 204 19 208

C23 215 30 218 67 233

C74 236 81 238 82 239

C83 239 84 240 84 240

L84 240

L84 238

Z

M113 227

C122 223 133 213 136 206

C142 197 142 192 143 160

C143 132 143 130 141 129

C140 129 129 124 116 119

C102 114 91 110 90 109

C89 108 88 108 88 108

L87 108

L87 152

C87 199 88 218 91 223

C92 227 98 231 103 231

C105 231 109 229 113 227

Z

M179 184

C188 179 197 170 201 162

C205 153 206 148 206 98

C207 74 207 53 208 51

C208 49 208 46 207 45

C206 44 198 41 165 29

C153 24 143 21 143 22

C142 22 142 44 142 70

L143 118

L146 119

C152 121 152 121 152 143

C154 174 155 181 160 185

C164 188 172 188 179 184

Z

"/>

<path fill="#fcfcfd" stroke="none" d="
M0 127

L0 0

L118 0

L235 0

L235 127

L235 254

L118 254

L0 254

L0 127

Z

M83 238

C83 237 82 234 81 232

C78 227 77 219 77 160

C76 133 76 111 76 110

C75 108 71 106 58 100

C32 89 17 84 14 84

L11 84

L11 95

C11 146 13 191 16 201

C16 206 22 213 26 215

C30 218 58 230 72 235

C77 237 81 239 82 239

C83 239 84 240 84 240

L84 240

L83 238

Z

M116 226

C128 218 137 208 140 198

C143 187 145 134 143 131

C142 129 122 121 100 113

C95 111 91 110 90 109

L88 108

L87 109

C86 109 87 184 87 201

C88 221 89 225 95 229

C101 232 107 232 116 226

Z

M179 184

C192 177 202 164 205 150

C206 147 206 134 206 122

C206 109 206 87 207 72

C208 57 208 45 207 45

C205 43 144 21 143 22

C142 22 142 44 142 70

C142 118 142 118 147 120

C152 123 152 123 152 142

C154 181 156 187 168 187

C171 187 174 186 179 184

Z

"/>

<path fill="#fefefe" stroke="none" d="
M0 127

L0 0

L118 0

L235 0

L235 127

L235 254

L118 254

L0 254

L0 127

Z

M82 234

C81 233 80 230 79 229

C78 227 77 204 77 191

C77 182 77 181 76 143

C76 108 76 108 63 102

C50 96 43 94 23 86

C15 83 12 82 11 83

C10 84 10 93 11 130

C13 199 14 207 25 215

C29 218 48 226 79 238

L84 240

L84 238

C84 238 83 236 82 234

Z

M108 230

C123 224 136 210 140 198

C142 192 143 179 144 155

C144 128 145 130 136 127

C134 126 122 121 110 117

C97 112 87 108 87 109

C85 110 87 209 89 218

C90 226 91 227 99 231

C102 232 103 232 108 230

Z

M179 184

C190 179 200 167 204 155

C205 153 206 136 206 118

C206 100 207 76 208 65

C208 46 208 45 206 44

C204 43 190 38 164 28

C150 23 143 21 143 22

C141 23 142 117 143 118

C144 119 145 120 147 120

L151 122

L151 134

C154 175 154 176 157 182

C159 186 165 188 170 187

C171 187 175 185 179 184

Z

"/>

<path fill="#ffffff" stroke="none" d="
M0 127

L0 0

L118 0

L235 0

L235 127

L235 254

L118 254

L0 254

L0 127

Z

M84 238

C84 237 83 234 82 233

C81 232 80 230 80 229

C80 228 80 227 79 227

C78 226 78 220 78 212

L78 199

L79 199

C79 199 80 200 81 200

L82 201

L84 200

L86 199

L87 210

C88 221 90 227 93 228

L95 228

L95 229

C95 230 100 232 103 232

C106 232 115 228 120 224

C129 218 140 203 140 198

C140 198 140 196 141 195

C142 193 144 176 145 169

C145 165 145 161 145 159

L145 155

L146 156

C146 156 147 158 147 160

L148 164

L148 160

L148 156

L149 156

L150 156

L150 157

L150 159

L151 157

L151 156

L152 156

L153 156

L153 165

C153 170 153 174 154 175

C155 175 155 176 155 178

C155 180 156 182 159 184

C162 187 164 188 167 188

C178 188 195 175 201 162

C207 151 207 148 207 116

C207 100 207 86 208 84

L208 81

L209 82

L210 83

L209 65

C209 48 209 46 207 44

C206 43 204 42 203 42

C202 42 201 42 201 41

C200 40 199 40 198 40

C197 40 195 39 194 39

C189 36 188 36 187 36

C186 36 184 36 183 35

C180 34 177 32 173 31

C170 30 168 29 168 29

C167 28 166 28 164 28

C163 28 162 28 162 27

C161 26 160 26 159 26

C157 26 156 26 156 25

C155 24 154 24 152 24

L150 24

L150 23

L150 22

L148 22

C147 22 146 22 145 21

L145 20

L143 22

C141 23 141 25 141 70

C141 119 141 119 145 120

L147 121

L147 122

L146 123

L148 124

L150 126

L148 124

L147 122

L149 122

L151 122

L151 126

L151 129

L150 129

C150 129 149 129 147 130

L145 131

L144 129

C143 129 141 128 140 128

L139 128

L139 127

L140 125

L137 126

L134 126

L134 125

C133 124 132 124 131 124

C130 124 128 123 125 122

C123 121 120 120 120 120

C119 120 118 120 118 119

C117 118 116 118 115 118

C114 118 111 117 110 116

C108 115 105 114 104 114

C103 114 102 114 101 113

C100 111 88 108 87 109

C87 109 86 110 86 112

L85 114

L84 113

C83 113 81 113 79 113

L76 113

L76 110

C76 108 75 107 72 106

C71 105 68 104 67 104

L66 104

L66 103

L66 102

L64 102

C64 102 62 102 61 101

C60 101 58 100 57 99

C56 99 52 97 50 96

C47 95 43 93 42 93

C41 92 39 91 38 91

C37 90 35 90 35 90

C34 90 32 89 29 88

C27 87 24 86 24 86

C23 86 22 86 21 85

C20 84 12 82 11 83

C11 83 10 101 10 122

L10 161

L10 160

L11 160

L11 163

L11 165

L10 165

L9 164

L9 167

L9 169

L10 169

L11 168

L12 170

C12 172 12 177 12 182

L12 192

L12 191

L13 191

L13 193

C14 193 14 195 14 197

C14 201 17 208 21 212

C24 215 32 220 41 223

C42 223 44 225 46 225

C48 226 52 228 54 229

C56 229 58 231 59 231

C60 232 62 232 63 232

L65 232

L65 233

L65 234

L67 234

C68 234 69 234 70 235

C70 236 71 236 73 236

C74 236 75 236 76 237

C76 238 77 238 79 238

C80 238 81 238 82 239

C82 240 83 240 83 240

L84 240

L84 238

Z

M148 169

L147 168

L147 170

L147 173

L148 171

C148 171 148 169 148 169

Z

"/>

</svg>

